# xmcd CD database file
#
# Track frame offsets:
#	150
#	26207
#	61185
#	93895
#	110714
#	137052
#	159361
#	192456
#
# Disc length: 2851 seconds
#
# Revision: 0
# Processed by: cddbd v1.4PL0 Copyright (c) Steve Scherf et al.
# Submitted via: CDex 1.50Beta7
#
DISCID=690b2108
DTITLE=Pál Vasvári - Tales of the princess
DYEAR=2000
DGENRE=Jazz
TTITLE0=Mirror
TTITLE1=Yes, my dear
TTITLE2=Hanky and the Boss
TTITLE3=Portrait of Hilda
TTITLE4=Little Angel
TTITLE5=Touch of the Panther
TTITLE6=Kiss Of Rose
TTITLE7=Samurai
EXTD=YEAR: 2000
EXTT0=
EXTT1=
EXTT2=
EXTT3=
EXTT4=
EXTT5=
EXTT6=
EXTT7=
PLAYORDER=
